<svg id="Ebene_1" data-name="Ebene 1" xmlns="http://www.w3.org/2000/svg" viewBox="0 0 9.84 9.4"><defs><style>.cls-1{isolation:isolate;}</style></defs><title>linkedin</title><path d="M2.37 1.09a1 1 0 0 1-.37.79 1.2 1.2 0 0 1-.87.31 1.15 1.15 0 0 1-.81-.31A1 1 0 0 1 0 1.09 1 1 0 0 1 .33.31 1.21 1.21 0 0 1 1.19 0 1.17 1.17 0 0 1 2 .31a1.07 1.07 0 0 1 .37.78zm-.13 2V9.4H.12V3.05h2.11zm7.6 2.71v3.6H7.73V6a1.86 1.86 0 0 0-.26-1 .91.91 0 0 0-.81-.38 1 1 0 0 0-.66.17 1.36 1.36 0 0 0-.41.55 1.55 1.55 0 0 0-.07.52V9.4H3.4V5.26 3.05h2.11V4a2.89 2.89 0 0 1 .26-.36 2.77 2.77 0 0 1 .36-.33A1.67 1.67 0 0 1 6.68 3a2.54 2.54 0 0 1 .73-.1 2.27 2.27 0 0 1 1.76.73 3 3 0 0 1 .67 2.13z" class="cls-1"/></svg>