<svg data-name="Ebene 1" xmlns="http://www.w3.org/2000/svg" viewBox="0 0 9.35 7.35"><title>mail</title><path d="M9.35.83a1.38 1.38 0 0 1-.26.79 2.47 2.47 0 0 1-.64.64L6 4l-.22.16-.28.2-.27.17a1.58 1.58 0 0 1-.3.14.8.8 0 0 1-.26 0 .8.8 0 0 1-.26 0 1.57 1.57 0 0 1-.3-.14l-.27-.21-.28-.2L3.33 4 2 3 .9 2.26a2.58 2.58 0 0 1-.61-.6A1.22 1.22 0 0 1 0 .95 1.05 1.05 0 0 1 .22.27.74.74 0 0 1 .83 0h7.68a.81.81 0 0 1 .59.25.8.8 0 0 1 .25.58zm0 1.53v4.15a.84.84 0 0 1-.83.83H.83a.81.81 0 0 1-.58-.24.81.81 0 0 1-.25-.59V2.37a2.75 2.75 0 0 0 .53.45q1.89 1.28 2.59 1.8L3.6 5a3 3 0 0 0 .49.25 1.51 1.51 0 0 0 .57.13 1.51 1.51 0 0 0 .57-.13A3 3 0 0 0 5.75 5l.48-.34q.88-.66 2.6-1.84a2.94 2.94 0 0 0 .52-.45z"/></svg>